<?xml version="1.0" encoding="UTF-8"?>
<!DOCTYPE svg PUBLIC "-//W3C//DTD SVG 1.1//EN" "http://www.w3.org/Graphics/SVG/1.1/DTD/svg11.dtd">
<svg xmlns="http://www.w3.org/2000/svg" version="1.1" width="278px" height="274px" style="shape-rendering:geometricPrecision; text-rendering:geometricPrecision; image-rendering:optimizeQuality; fill-rule:evenodd; clip-rule:evenodd" xmlns:xlink="http://www.w3.org/1999/xlink">
<g><path style="opacity:1" fill="#f6f6f6" d="M -0.5,-0.5 C 92.1667,-0.5 184.833,-0.5 277.5,-0.5C 277.5,90.8333 277.5,182.167 277.5,273.5C 184.833,273.5 92.1667,273.5 -0.5,273.5C -0.5,182.167 -0.5,90.8333 -0.5,-0.5 Z"/></g>
<g><path style="opacity:1" fill="#f26666" d="M 159.5,20.5 C 164.309,24.4928 167.809,29.4928 170,35.5C 170.667,40.1667 170.667,44.8333 170,49.5C 163.802,69.7632 157.802,90.0965 152,110.5C 147.372,123.402 138.205,129.068 124.5,127.5C 110.725,124.139 97.0588,120.306 83.5,116C 71.87,109.573 67.0366,99.7393 69,86.5C 75.0059,65.8178 81.0059,45.1511 87,24.5C 91.4166,13.7469 99.4166,8.08021 111,7.5C 127.172,11.7225 143.339,16.0559 159.5,20.5 Z"/></g>
<g><path style="opacity:1" fill="#dd5c5c" d="M 159.5,20.5 C 167.465,22.9934 175.465,25.4934 183.5,28C 193.5,34.5006 197.667,43.6673 196,55.5C 190.061,73.6503 184.728,91.9837 180,110.5C 176.495,128.493 165.662,136.66 147.5,135C 139.642,132.769 131.975,130.269 124.5,127.5C 138.205,129.068 147.372,123.402 152,110.5C 157.802,90.0965 163.802,69.7632 170,49.5C 170.667,44.8333 170.667,40.1667 170,35.5C 167.809,29.4928 164.309,24.4928 159.5,20.5 Z"/></g>
<g><path style="opacity:1" fill="#fefafa" d="M 136.5,48.5 C 142.922,47.104 146.256,49.604 146.5,56C 145.807,70.1736 144.974,84.3403 144,98.5C 136.114,100.434 133.614,97.4338 136.5,89.5C 136.182,88.3527 135.516,87.5194 134.5,87C 130.539,85.4017 126.539,83.9017 122.5,82.5C 120.507,84.6655 118.673,86.9989 117,89.5C 113.228,91.1986 110.728,90.032 109.5,86C 118.136,73.223 127.136,60.723 136.5,48.5 Z"/></g>
<g><path style="opacity:1" fill="#f36e6d" d="M 136.5,61.5 C 137.461,63.2646 137.795,65.2646 137.5,67.5C 137.826,71.8839 137.492,76.2172 136.5,80.5C 132.923,79.477 129.589,77.977 126.5,76C 130.054,71.2863 133.387,66.453 136.5,61.5 Z"/></g>
<g><path style="opacity:1" fill="#f9bbbb" d="M 137.5,67.5 C 137.795,65.2646 137.461,63.2646 136.5,61.5C 136.783,60.7109 137.283,60.0442 138,59.5C 138.801,62.367 138.634,65.0336 137.5,67.5 Z"/></g>
<g><path style="opacity:1" fill="#66d1cb" d="M 100.5,255.5 C 99.7611,255.631 99.0944,255.464 98.5,255C 107.041,249.95 111.041,242.45 110.5,232.5C 107.532,208.693 103.699,185.026 99,161.5C 95.0685,153.163 88.9019,147.496 80.5,144.5C 89.653,142.033 98.9864,141.199 108.5,142C 118.172,145.672 124.339,152.506 127,162.5C 130,181.167 133,199.833 136,218.5C 139.819,235.03 133.986,246.53 118.5,253C 112.536,254.161 106.536,254.994 100.5,255.5 Z"/></g>
<g><path style="opacity:1" fill="#fe9f41" d="M 243.5,144.5 C 236.159,144.334 228.826,144.5 221.5,145C 230.07,147.904 235.57,153.737 238,162.5C 238.667,187.5 238.667,212.5 238,237.5C 235.045,246.617 229.211,252.95 220.5,256.5C 203.497,256.667 186.497,256.5 169.5,256C 160.157,252.656 154.323,246.156 152,236.5C 151.333,211.833 151.333,187.167 152,162.5C 155.113,152.844 161.613,146.678 171.5,144C 195.67,143.17 219.67,143.337 243.5,144.5 Z"/></g>
<g><path style="opacity:1" fill="#f4923a" d="M 243.5,144.5 C 254.417,146.916 261.25,153.582 264,164.5C 264.667,188.5 264.667,212.5 264,236.5C 261.473,247.027 254.973,253.527 244.5,256C 236.507,256.5 228.507,256.666 220.5,256.5C 229.211,252.95 235.045,246.617 238,237.5C 238.667,212.5 238.667,187.5 238,162.5C 235.57,153.737 230.07,147.904 221.5,145C 228.826,144.5 236.159,144.334 243.5,144.5 Z"/></g>
<g><path style="opacity:1" fill="#74e7e6" d="M 80.5,144.5 C 88.9019,147.496 95.0685,153.163 99,161.5C 103.699,185.026 107.532,208.693 110.5,232.5C 111.041,242.45 107.041,249.95 98.5,255C 99.0944,255.464 99.7611,255.631 100.5,255.5C 81.7625,259.218 62.7625,261.718 43.5,263C 32.9352,259.103 26.7685,251.603 25,240.5C 21.6059,219.136 18.1059,197.803 14.5,176.5C 15.7613,164.405 22.0946,156.238 33.5,152C 49.148,149.281 64.8147,146.781 80.5,144.5 Z"/></g>
<g><path style="opacity:1" fill="#fffaf6" d="M 203.5,175.5 C 208.58,175.25 213.58,175.75 218.5,177C 223.873,180.018 226.039,184.518 225,190.5C 222.333,193.167 219.667,193.167 217,190.5C 216.907,187.993 216.074,185.826 214.5,184C 210.683,182.977 207.183,183.477 204,185.5C 203.193,195.214 203.359,204.881 204.5,214.5C 212.053,218.689 216.387,216.522 217.5,208C 225.562,206.627 227.728,209.794 224,217.5C 216.41,225.232 207.91,226.399 198.5,221C 197.789,219.745 196.956,218.579 196,217.5C 194.427,206.559 194.094,195.559 195,184.5C 196.688,180.315 199.521,177.315 203.5,175.5 Z"/></g>
<g><path style="opacity:1" fill="#fbfefe" d="M 72.5,179.5 C 84.2671,178.434 89.4338,183.767 88,195.5C 87.5348,196.931 86.7014,198.097 85.5,199C 94.0197,203.183 97.1863,210.016 95,219.5C 94.2155,221.286 93.0488,222.786 91.5,224C 84.6624,226.627 77.6624,228.794 70.5,230.5C 69.5581,230.392 68.7247,230.059 68,229.5C 64.3262,215.139 60.4929,200.806 56.5,186.5C 56.5904,184.575 57.5904,183.408 59.5,183C 63.9989,181.961 68.3323,180.794 72.5,179.5 Z"/></g>
<g><path style="opacity:1" fill="#7ce8e7" d="M 70.5,187.5 C 76.0284,186.069 79.3617,188.069 80.5,193.5C 80.1243,195.383 79.1243,196.883 77.5,198C 74.4786,198.849 71.4786,199.683 68.5,200.5C 67.8333,196.5 67.1667,192.5 66.5,188.5C 68.099,188.768 69.4324,188.434 70.5,187.5 Z"/></g>
<g><path style="opacity:1" fill="#7ae8e7" d="M 76.5,204.5 C 82.961,203.959 86.2943,206.959 86.5,213.5C 86.6738,215.693 86.0071,217.527 84.5,219C 81.2231,220.143 77.8898,220.977 74.5,221.5C 73.172,216.858 71.8387,212.191 70.5,207.5C 72.5939,206.482 74.5939,205.482 76.5,204.5 Z"/></g>
</svg>
